<svg width="40" height="40" viewBox="0 0 40 40" fill="none" xmlns="http://www.w3.org/2000/svg">
<path d="M20 27.5C21.9891 27.5 23.8968 26.7098 25.3033 25.3033C26.7098 23.8968 27.5 21.9891 27.5 20C27.5 18.0109 26.7098 16.1032 25.3033 14.6967C23.8968 13.2902 21.9891 12.5 20 12.5C18.0109 12.5 16.1032 13.2902 14.6967 14.6967C13.2902 16.1032 12.5 18.0109 12.5 20C12.5 21.9891 13.2902 23.8968 14.6967 25.3033C16.1032 26.7098 18.0109 27.5 20 27.5ZM20 30C17.3478 30 14.8043 28.9464 12.9289 27.0711C11.0536 25.1957 10 22.6522 10 20C10 17.3478 11.0536 14.8043 12.9289 12.9289C14.8043 11.0536 17.3478 10 20 10C22.6522 10 25.1957 11.0536 27.0711 12.9289C28.9464 14.8043 30 17.3478 30 20C30 22.6522 28.9464 25.1957 27.0711 27.0711C25.1957 28.9464 22.6522 30 20 30ZM20 2.5C20.3315 2.5 20.6495 2.6317 20.8839 2.86612C21.1183 3.10054 21.25 3.41848 21.25 3.75V6.25C21.25 6.58152 21.1183 6.89946 20.8839 7.13388C20.6495 7.3683 20.3315 7.5 20 7.5C19.6685 7.5 19.3505 7.3683 19.1161 7.13388C18.8817 6.89946 18.75 6.58152 18.75 6.25V3.75C18.75 3.41848 18.8817 3.10054 19.1161 2.86612C19.3505 2.6317 19.6685 2.5 20 2.5ZM20 32.5C20.3315 32.5 20.6495 32.6317 20.8839 32.8661C21.1183 33.1005 21.25 33.4185 21.25 33.75V36.25C21.25 36.5815 21.1183 36.8995 20.8839 37.1339C20.6495 37.3683 20.3315 37.5 20 37.5C19.6685 37.5 19.3505 37.3683 19.1161 37.1339C18.8817 36.8995 18.75 36.5815 18.75 36.25V33.75C18.75 33.4185 18.8817 33.1005 19.1161 32.8661C19.3505 32.6317 19.6685 32.5 20 32.5ZM7.625 7.625C7.85941 7.39066 8.17729 7.25902 8.50875 7.25902C8.84021 7.25902 9.15809 7.39066 9.3925 7.625L11.16 9.3925C11.2794 9.50781 11.3746 9.64574 11.4401 9.79824C11.5056 9.95075 11.5401 10.1148 11.5416 10.2807C11.543 10.4467 11.5114 10.6113 11.4485 10.7649C11.3857 10.9186 11.2929 11.0581 11.1755 11.1755C11.0581 11.2929 10.9186 11.3857 10.7649 11.4485C10.6113 11.5114 10.4467 11.543 10.2807 11.5416C10.1148 11.5401 9.95075 11.5056 9.79824 11.4401C9.64574 11.3746 9.50781 11.2794 9.3925 11.16L7.625 9.3925C7.39066 9.15809 7.25902 8.84021 7.25902 8.50875C7.25902 8.17729 7.39066 7.85941 7.625 7.625ZM28.84 28.84C29.0744 28.6057 29.3923 28.474 29.7237 28.474C30.0552 28.474 30.3731 28.6057 30.6075 28.84L32.375 30.6075C32.6027 30.8433 32.7287 31.159 32.7258 31.4868C32.723 31.8145 32.5915 32.128 32.3598 32.3598C32.128 32.5915 31.8145 32.723 31.4868 32.7258C31.159 32.7287 30.8433 32.6027 30.6075 32.375L28.84 30.6075C28.6057 30.3731 28.474 30.0552 28.474 29.7237C28.474 29.3923 28.6057 29.0744 28.84 28.84ZM2.5 20C2.5 19.6685 2.6317 19.3505 2.86612 19.1161C3.10054 18.8817 3.41848 18.75 3.75 18.75H6.25C6.58152 18.75 6.89946 18.8817 7.13388 19.1161C7.3683 19.3505 7.5 19.6685 7.5 20C7.5 20.3315 7.3683 20.6495 7.13388 20.8839C6.89946 21.1183 6.58152 21.25 6.25 21.25H3.75C3.41848 21.25 3.10054 21.1183 2.86612 20.8839C2.6317 20.6495 2.5 20.3315 2.5 20ZM32.5 20C32.5 19.6685 32.6317 19.3505 32.8661 19.1161C33.1005 18.8817 33.4185 18.75 33.75 18.75H36.25C36.5815 18.75 36.8995 18.8817 37.1339 19.1161C37.3683 19.3505 37.5 19.6685 37.5 20C37.5 20.3315 37.3683 20.6495 37.1339 20.8839C36.8995 21.1183 36.5815 21.25 36.25 21.25H33.75C33.4185 21.25 33.1005 21.1183 32.8661 20.8839C32.6317 20.6495 32.5 20.3315 32.5 20ZM7.625 32.375C7.39066 32.1406 7.25902 31.8227 7.25902 31.4913C7.25902 31.1598 7.39066 30.8419 7.625 30.6075L9.3925 28.84C9.62825 28.6123 9.94401 28.4863 10.2718 28.4892C10.5995 28.492 10.913 28.6235 11.1448 28.8552C11.3765 29.087 11.508 29.4005 11.5108 29.7282C11.5137 30.056 11.3877 30.3717 11.16 30.6075L9.3925 32.375C9.15809 32.6093 8.84021 32.741 8.50875 32.741C8.17729 32.741 7.85941 32.6093 7.625 32.375ZM28.84 11.16C28.6057 10.9256 28.474 10.6077 28.474 10.2762C28.474 9.94479 28.6057 9.62691 28.84 9.3925L30.6075 7.625C30.8433 7.3973 31.159 7.27131 31.4868 7.27416C31.8145 7.27701 32.128 7.40847 32.3598 7.64023C32.5915 7.87199 32.723 8.1855 32.7258 8.51325C32.7287 8.84099 32.6027 9.15675 32.375 9.3925L30.6075 11.16C30.3731 11.3943 30.0552 11.526 29.7237 11.526C29.3923 11.526 29.0744 11.3943 28.84 11.16Z" fill="white"/>
</svg>
