<svg width="40" height="40" viewBox="0 0 40 40" fill="none" xmlns="http://www.w3.org/2000/svg">
<path d="M5.73332 22.52C5.73332 23.7067 6.02666 24.8133 6.61332 25.8267C7.19999 26.84 7.98666 27.64 8.99999 28.2267C10.0133 28.8133 11.1067 29.12 12.3067 29.12H26.72C27.9067 29.12 29.0133 28.8267 30.0267 28.2267C31.04 27.6267 31.84 26.8267 32.4267 25.8267C33.0133 24.8133 33.32 23.7067 33.32 22.52C33.32 21.6667 33.1333 20.7867 32.76 19.8533C33.7733 18.6133 34.2667 17.1467 34.2667 15.4533C34.2773 14.2292 33.9633 13.0241 33.3567 11.9607C32.7501 10.8974 31.8725 10.0138 30.8133 9.40001C29.7467 8.77334 28.5733 8.46667 27.3067 8.46667C25.32 8.46667 23.6 9.24001 22.1467 10.7867C21.1333 10.2133 19.9333 9.92001 18.56 9.92001C16.68 9.92001 15.0267 10.4933 13.5867 11.6533C12.1467 12.8133 11.2267 14.2933 10.8133 16.12C9.31999 16.4533 8.10666 17.2133 7.15999 18.4133C6.22476 19.5766 5.7207 21.0275 5.73332 22.52ZM8.01332 22.52C8.01332 21.4133 8.38666 20.4533 9.11999 19.64C9.86666 18.8267 10.8 18.36 11.92 18.2267L12.8267 18.1867L12.92 17.2267C13.1067 15.7867 13.7333 14.5733 14.8 13.6133C15.8667 12.64 17.12 12.16 18.5467 12.16C20 12.16 21.28 12.6533 22.36 13.6267C23.44 14.6 24.0533 15.8 24.2 17.24L24.3333 18.24H26.7067C27.88 18.24 28.8933 18.6667 29.7467 19.5067C30.6 20.3467 31.0267 21.36 31.0267 22.52C31.0267 23.72 30.6 24.7467 29.76 25.6133C28.92 26.48 27.8933 26.9067 26.72 26.9067H12.3067C11.1467 26.9067 10.1467 26.48 9.29332 25.6133C8.43999 24.7333 8.01332 23.7067 8.01332 22.52ZM24.0533 12.08C24.9733 11.2 26.0533 10.76 27.3067 10.76C28.6267 10.76 29.7467 11.2133 30.6667 12.1333C31.5867 13.04 32.0533 14.16 32.0533 15.48C32.0533 16.3067 31.8267 17.12 31.36 17.9333C30.08 16.64 28.5333 16 26.7067 16H26.2933C25.9333 14.52 25.1867 13.2133 24.0533 12.08Z" fill="white"/>
</svg>
