<svg width="38" height="28" viewBox="0 0 38 28" fill="none" xmlns="http://www.w3.org/2000/svg">
<path d="M9.83335 27.3333C7.30558 27.3333 5.14613 26.4583 3.35502 24.7083C1.56391 22.9583 0.667798 20.8194 0.666687 18.2917C0.666687 16.125 1.31946 14.1944 2.62502 12.5C3.93058 10.8056 5.63891 9.72222 7.75002 9.25C8.44446 6.69444 9.83335 4.625 11.9167 3.04167C14 1.45833 16.3611 0.666668 19 0.666668C22.25 0.666668 25.0072 1.79889 27.2717 4.06333C29.5361 6.32778 30.6678 9.08445 30.6667 12.3333C32.5834 12.5556 34.1739 13.3822 35.4384 14.8133C36.7028 16.2444 37.3345 17.9178 37.3334 19.8333C37.3334 21.9167 36.6045 23.6878 35.1467 25.1467C33.6889 26.6056 31.9178 27.3344 29.8334 27.3333H9.83335ZM9.83335 24H29.8334C31 24 31.9861 23.5972 32.7917 22.7917C33.5972 21.9861 34 21 34 19.8333C34 18.6667 33.5972 17.6806 32.7917 16.875C31.9861 16.0694 31 15.6667 29.8334 15.6667H27.3334V12.3333C27.3334 10.0278 26.5206 8.06222 24.895 6.43667C23.2695 4.81111 21.3045 3.99889 19 4C16.6956 4.00111 14.7306 4.81389 13.105 6.43833C11.4795 8.06278 10.6667 10.0278 10.6667 12.3333H9.83335C8.22224 12.3333 6.84724 12.9028 5.70835 14.0417C4.56946 15.1806 4.00002 16.5556 4.00002 18.1667C4.00002 19.7778 4.56946 21.1528 5.70835 22.2917C6.84724 23.4306 8.22224 24 9.83335 24Z" fill="white"/>
</svg>
