<svg width="40" height="40" viewBox="0 0 40 40" fill="none" xmlns="http://www.w3.org/2000/svg">
<path d="M8.95391 12.7227C9.21502 12.6822 9.45671 12.5603 9.64453 12.3744C9.83236 12.1886 9.95675 11.9482 10 11.6875C10.9445 5.95078 15.1273 2.5 20 2.5C24.5258 2.5 27.5484 5.44922 28.7656 8.57344C28.8438 8.77368 28.9729 8.9501 29.14 9.08531C29.3071 9.22052 29.5066 9.30986 29.7187 9.34453C33.625 9.98125 36.875 12.5898 36.875 17.125C36.875 21.7656 33.0781 25 28.4375 25H10.1562C6.28906 25 3.125 23.0703 3.125 18.8125C3.125 15.0258 6.14609 13.1703 8.95391 12.7227Z" stroke="white" stroke-width="2.5" stroke-linejoin="round"/>
<path d="M11.25 30L8.75 33.75M17.5 30L12.5 37.5M23.75 30L21.25 33.75M30 30L25 37.5" stroke="white" stroke-width="2.5" stroke-linecap="round" stroke-linejoin="round"/>
</svg>
