<svg width="40" height="35" viewBox="0 0 40 35" fill="none" xmlns="http://www.w3.org/2000/svg">
<path d="M34.3945 15.2344C35.2148 15.4557 35.9635 15.7943 36.6406 16.25C37.3177 16.7057 37.9102 17.2591 38.418 17.9102C38.9258 18.5612 39.3164 19.2708 39.5898 20.0391C39.8633 20.8073 40 21.6276 40 22.5C40 23.5417 39.8047 24.5117 39.4141 25.4102C39.0234 26.3086 38.4896 27.1029 37.8125 27.793C37.1354 28.4831 36.3346 29.0234 35.4102 29.4141C34.4857 29.8047 33.5156 30 32.5 30H25L27.5 27.5H32.5C33.1901 27.5 33.8346 27.3698 34.4336 27.1094C35.0326 26.849 35.5664 26.4909 36.0352 26.0352C36.5039 25.5794 36.862 25.0521 37.1094 24.4531C37.3568 23.8542 37.487 23.2031 37.5 22.5C37.5 21.7839 37.3698 21.1263 37.1094 20.5273C36.849 19.9284 36.4779 19.401 35.9961 18.9453C35.5143 18.4896 34.974 18.138 34.375 17.8906C33.776 17.6432 33.112 17.513 32.3828 17.5C32.2266 16.4323 31.8945 15.4427 31.3867 14.5312C30.8789 13.6198 30.2409 12.8255 29.4727 12.1484C28.7044 11.4714 27.832 10.944 26.8555 10.5664C25.8789 10.1888 24.8438 10 23.75 10C22.7474 10 21.7969 10.1628 20.8984 10.4883C20 10.8138 19.1732 11.263 18.418 11.8359C17.6628 12.4089 17.0247 13.099 16.5039 13.9062C15.9831 14.7135 15.5859 15.5924 15.3125 16.543C14.7396 16.0482 14.1081 15.6706 13.418 15.4102C12.7279 15.1497 12.0052 15.013 11.25 15C10.3906 15 9.58333 15.1628 8.82812 15.4883C8.07292 15.8138 7.40885 16.2565 6.83594 16.8164C6.26302 17.3763 5.8138 18.0404 5.48828 18.8086C5.16276 19.5768 5 20.3906 5 21.25C5 22.1094 5.16276 22.9167 5.48828 23.6719C5.8138 24.4271 6.25651 25.0911 6.81641 25.6641C7.3763 26.237 8.04036 26.6862 8.80859 27.0117C9.57682 27.3372 10.3906 27.5 11.25 27.5H16.25L15 30H11.25C10.0391 30 8.90625 29.7721 7.85156 29.3164C6.79688 28.8607 5.8724 28.2357 5.07812 27.4414C4.28385 26.6471 3.65885 25.7227 3.20312 24.668C2.7474 23.6133 2.51302 22.474 2.5 21.25C2.5 20.2734 2.65625 19.3359 2.96875 18.4375C2.04427 17.7344 1.32161 16.862 0.800781 15.8203C0.279948 14.7786 0.0130208 13.6719 0 12.5C0 11.4714 0.195312 10.5013 0.585938 9.58984C0.976562 8.67839 1.51042 7.88411 2.1875 7.20703C2.86458 6.52995 3.65885 5.98958 4.57031 5.58594C5.48177 5.18229 6.45833 4.98698 7.5 5H7.91016C8.04036 5 8.18359 5.01302 8.33984 5.03906C8.69141 4.25781 9.14062 3.5612 9.6875 2.94922C10.2344 2.33724 10.8529 1.8099 11.543 1.36719C12.2331 0.924479 12.9753 0.585938 13.7695 0.351562C14.5638 0.117188 15.3906 0 16.25 0C17.3438 0 18.3789 0.188802 19.3555 0.566406C20.332 0.94401 21.2109 1.47135 21.9922 2.14844C22.7734 2.82552 23.418 3.6263 23.9258 4.55078C24.4336 5.47526 24.7656 6.47786 24.9219 7.55859C26.0156 7.67578 27.0573 7.94271 28.0469 8.35938C29.0365 8.77604 29.9414 9.32292 30.7617 10C31.582 10.6771 32.3112 11.4583 32.9492 12.3438C33.5872 13.2292 34.069 14.1927 34.3945 15.2344ZM14.1211 12.9883C14.5638 12.2461 15.0781 11.569 15.6641 10.957C16.25 10.3451 16.901 9.80469 17.6172 9.33594C18.3333 8.86719 19.0885 8.48307 19.8828 8.18359C20.6771 7.88411 21.5104 7.68229 22.3828 7.57812C22.2396 6.84896 21.9792 6.17188 21.6016 5.54688C21.224 4.92188 20.7682 4.38802 20.2344 3.94531C19.7005 3.5026 19.0885 3.15104 18.3984 2.89062C17.7083 2.63021 16.9922 2.5 16.25 2.5C15.4427 2.5 14.681 2.64323 13.9648 2.92969C13.2487 3.21615 12.6107 3.61979 12.0508 4.14062C11.4909 4.66146 11.0352 5.26693 10.6836 5.95703C10.332 6.64714 10.1237 7.40234 10.0586 8.22266C9.66797 8.0013 9.25781 7.82552 8.82812 7.69531C8.39844 7.5651 7.95573 7.5 7.5 7.5C6.8099 7.5 6.16536 7.63021 5.56641 7.89062C4.96745 8.15104 4.43359 8.50911 3.96484 8.96484C3.49609 9.42057 3.13802 9.94792 2.89062 10.5469C2.64323 11.1458 2.51302 11.7969 2.5 12.5C2.5 13.2031 2.63672 13.8737 2.91016 14.5117C3.18359 15.1497 3.59375 15.7031 4.14062 16.1719C4.96094 15.013 5.99609 14.1146 7.24609 13.4766C8.49609 12.8385 9.83073 12.513 11.25 12.5C12.2135 12.5 13.1706 12.6628 14.1211 12.9883ZM16.25 35L21.25 25H16.875L20.625 17.5H25L22.5 22.5H28.75L16.25 35Z" fill="white"/>
</svg>
