<svg width="34" height="38" viewBox="0 0 34 38" fill="none" xmlns="http://www.w3.org/2000/svg">
<path d="M33.0156 26.2656L30.3594 24.7312C30.84 24.2361 31.3913 23.8149 31.9953 23.4812C32.3902 23.2586 32.6811 22.889 32.8048 22.4529C32.9284 22.0168 32.8748 21.5495 32.6556 21.1528C32.4363 20.756 32.0692 20.4619 31.6342 20.3346C31.1992 20.2072 30.7314 20.2568 30.3328 20.4727C29.1796 21.1109 28.1577 21.9619 27.3211 22.9805L20.4375 19L27.3195 15.0266C28.156 16.0453 29.1779 16.8963 30.3313 17.5344C30.529 17.6458 30.7468 17.717 30.9721 17.7439C31.1975 17.7707 31.4259 17.7527 31.6442 17.6907C31.8626 17.6288 32.0665 17.5243 32.2442 17.3832C32.4219 17.242 32.57 17.0671 32.6797 16.8685C32.7895 16.6698 32.8588 16.4514 32.8837 16.2258C32.9086 16.0003 32.8886 15.772 32.8249 15.5542C32.7611 15.3364 32.6548 15.1334 32.5122 14.9569C32.3695 14.7804 32.1933 14.6338 31.9938 14.5258C31.3899 14.1919 30.8386 13.7707 30.3578 13.2758L33.0141 11.7414C33.2173 11.6328 33.3965 11.4844 33.5412 11.3051C33.6859 11.1258 33.7931 10.9193 33.8564 10.6977C33.9196 10.4762 33.9377 10.2442 33.9096 10.0155C33.8814 9.78687 33.8075 9.5662 33.6924 9.36664C33.5772 9.16709 33.4231 8.99272 33.2392 8.85391C33.0553 8.7151 32.8454 8.61468 32.622 8.55861C32.3985 8.50254 32.166 8.49197 31.9384 8.52754C31.7108 8.5631 31.4926 8.64407 31.2969 8.76562L28.6406 10.2992C28.4514 9.63511 28.3614 8.94668 28.3734 8.25625C28.3784 8.03014 28.3387 7.80527 28.2566 7.59453C28.1745 7.3838 28.0516 7.19133 27.895 7.02818C27.7384 6.86502 27.5511 6.73438 27.3439 6.64375C27.1367 6.55311 26.9136 6.50426 26.6875 6.5H26.6555C26.2051 6.49992 25.7727 6.6766 25.4513 6.99203C25.1299 7.30747 24.9451 7.73645 24.9367 8.18672C24.9125 9.50381 25.1378 10.8136 25.6008 12.0469L18.7188 16.0227V8.07656C20.0191 7.86166 21.2669 7.40225 22.3961 6.72266C22.7866 6.48738 23.0676 6.10663 23.1773 5.66416C23.2871 5.22169 23.2165 4.75375 22.9813 4.36328C22.746 3.97281 22.3652 3.6918 21.9228 3.58206C21.4803 3.47232 21.0124 3.54285 20.6219 3.77812C20.0299 4.13384 19.3886 4.40001 18.7188 4.56797V1.96875C18.7188 1.51291 18.5377 1.07574 18.2153 0.75341C17.893 0.431082 17.4558 0.25 17 0.25C16.5442 0.25 16.107 0.431082 15.7847 0.75341C15.4623 1.07574 15.2813 1.51291 15.2813 1.96875V4.56797C14.6114 4.40001 13.9701 4.13384 13.3781 3.77812C12.9877 3.54285 12.5197 3.47232 12.0773 3.58206C11.6348 3.6918 11.254 3.97281 11.0188 4.36328C10.7835 4.75375 10.713 5.22169 10.8227 5.66416C10.9324 6.10663 11.2134 6.48738 11.6039 6.72266C12.7331 7.40225 13.9809 7.86166 15.2813 8.07656V16.0227L8.39923 12.0469C8.86292 10.8132 9.08877 9.50288 9.06485 8.18516C9.05646 7.73489 8.87168 7.3059 8.55026 6.99047C8.22883 6.67504 7.79645 6.49836 7.3461 6.49844H7.31251C7.08679 6.50261 6.8641 6.5512 6.65716 6.64145C6.45022 6.7317 6.26309 6.86183 6.10646 7.02441C5.94983 7.18699 5.82676 7.37884 5.74428 7.589C5.66181 7.79915 5.62154 8.0235 5.62579 8.24922C5.63843 8.94066 5.54866 9.63016 5.35938 10.2953L2.70313 8.76562C2.50753 8.64894 2.29068 8.57231 2.0652 8.54016C1.83972 8.50802 1.61009 8.52101 1.38968 8.57838C1.16926 8.63576 0.962443 8.73637 0.781248 8.87437C0.600053 9.01237 0.448093 9.185 0.334201 9.38225C0.220308 9.57949 0.146754 9.7974 0.117813 10.0233C0.0888728 10.2492 0.105123 10.4786 0.165619 10.6982C0.226115 10.9178 0.329651 11.1232 0.47021 11.3024C0.610768 11.4816 0.785544 11.6311 0.984382 11.7422L3.64063 13.2766C3.15983 13.7715 2.60857 14.1927 2.00469 14.5266C1.80513 14.6346 1.62894 14.7811 1.48629 14.9576C1.34364 15.1342 1.23737 15.3372 1.17359 15.555C1.10982 15.7728 1.08981 16.0011 1.11472 16.2266C1.13963 16.4522 1.20897 16.6706 1.31873 16.8692C1.4285 17.0679 1.57651 17.2428 1.75424 17.3839C1.93196 17.5251 2.13588 17.6296 2.35421 17.6915C2.57255 17.7534 2.80099 17.7715 3.02634 17.7447C3.2517 17.7178 3.4695 17.6466 3.66719 17.5352C4.82044 16.8969 5.84236 16.0459 6.67891 15.0273L13.5625 19L6.68048 22.9734C5.84392 21.9548 4.82201 21.1039 3.66876 20.4656C3.47107 20.3542 3.25326 20.283 3.02791 20.2561C2.80255 20.2293 2.57411 20.2473 2.35578 20.3093C2.13744 20.3712 1.93352 20.4757 1.7558 20.6168C1.57807 20.758 1.43006 20.9329 1.32029 21.1315C1.21053 21.3302 1.14119 21.5486 1.11628 21.7742C1.09137 21.9997 1.11138 22.228 1.17515 22.4458C1.23893 22.6636 1.34521 22.8666 1.48785 23.0431C1.6305 23.2196 1.80669 23.3662 2.00626 23.4742C2.61014 23.8081 3.1614 24.2293 3.64219 24.7242L0.984382 26.2656C0.785544 26.3767 0.610768 26.5262 0.47021 26.7054C0.329651 26.8846 0.226115 27.09 0.165619 27.3096C0.105123 27.5292 0.0888728 27.7586 0.117813 27.9845C0.146754 28.2104 0.220308 28.4283 0.334201 28.6256C0.448093 28.8228 0.600053 28.9954 0.781248 29.1334C0.962443 29.2714 1.16926 29.3721 1.38968 29.4294C1.61009 29.4868 1.83972 29.4998 2.0652 29.4677C2.29068 29.4355 2.50753 29.3589 2.70313 29.2422L5.35938 27.7086C5.54861 28.3727 5.63865 29.0611 5.62657 29.7516C5.61862 30.2069 5.7917 30.6468 6.10781 30.9746C6.42391 31.3024 6.85719 31.4914 7.31251 31.5H7.34454C7.79488 31.5001 8.22727 31.3234 8.54869 31.008C8.87012 30.6925 9.0549 30.2635 9.06329 29.8133C9.08751 28.4962 8.86219 27.1864 8.39923 25.9531L15.2813 21.9773V29.9234C13.9809 30.1383 12.7331 30.5977 11.6039 31.2773C11.2134 31.5126 10.9324 31.8934 10.8227 32.3358C10.713 32.7783 10.7835 33.2463 11.0188 33.6367C11.254 34.0272 11.6348 34.3082 12.0773 34.4179C12.5197 34.5277 12.9877 34.4572 13.3781 34.2219C13.9701 33.8662 14.6114 33.6 15.2813 33.432V36.0312C15.2813 36.4871 15.4623 36.9243 15.7847 37.2466C16.107 37.5689 16.5442 37.75 17 37.75C17.4558 37.75 17.893 37.5689 18.2153 37.2466C18.5377 36.9243 18.7188 36.4871 18.7188 36.0312V33.432C19.3886 33.6 20.0299 33.8662 20.6219 34.2219C21.0124 34.4572 21.4803 34.5277 21.9228 34.4179C22.3652 34.3082 22.746 34.0272 22.9813 33.6367C23.2165 33.2463 23.2871 32.7783 23.1773 32.3358C23.0676 31.8934 22.7866 31.5126 22.3961 31.2773C21.2669 30.5977 20.0191 30.1383 18.7188 29.9234V21.9773L25.6008 25.9531C25.1371 27.1868 24.9112 28.4971 24.9352 29.8148C24.9436 30.2651 25.1283 30.6941 25.4498 31.0095C25.7712 31.325 26.2036 31.5016 26.6539 31.5016H26.6875C26.9132 31.4974 27.1359 31.4488 27.3429 31.3586C27.5498 31.2683 27.7369 31.1382 27.8936 30.9756C28.0502 30.813 28.1733 30.6212 28.2557 30.411C28.3382 30.2008 28.3785 29.9765 28.3742 29.7508C28.3616 29.0593 28.4514 28.3698 28.6406 27.7047L31.2969 29.2383C31.4925 29.3639 31.7115 29.4485 31.9408 29.487C32.17 29.5255 32.4047 29.5171 32.6306 29.4624C32.8565 29.4076 33.0689 29.3076 33.255 29.1683C33.4412 29.0291 33.5971 28.8536 33.7135 28.6523C33.8298 28.4511 33.9042 28.2283 33.932 27.9976C33.9598 27.7668 33.9405 27.5328 33.8752 27.3097C33.81 27.0866 33.7002 26.879 33.5524 26.6995C33.4047 26.5201 33.2221 26.3725 33.0156 26.2656Z" fill="white"/>
</svg>
