<svg width="40" height="40" viewBox="0 0 40 40" fill="none" xmlns="http://www.w3.org/2000/svg">
<path fill-rule="evenodd" clip-rule="evenodd" d="M13.1833 11.5167C13.8869 9.80182 15.0937 8.34051 16.6446 7.32544C18.1955 6.31037 20.0177 5.78923 21.8708 5.83075C23.7239 5.87226 25.5209 6.47448 27.0248 7.55798C28.5287 8.64148 29.6689 10.1554 30.295 11.9C32.0352 12.322 33.5932 13.2933 34.7384 14.6699C35.8835 16.0465 36.5549 17.7553 36.653 19.5433C36.7512 21.3312 36.271 23.1033 35.2834 24.597C34.2959 26.0907 32.8535 27.2267 31.17 27.8367C30.5869 29.4472 29.5218 30.8389 28.1196 31.8224C26.7173 32.806 25.0461 33.3335 23.3333 33.3333H10.6C8.94691 33.334 7.343 32.7711 6.05297 31.7375C4.76294 30.7038 3.8639 29.2612 3.50423 27.6477C3.14456 26.0343 3.34576 24.3464 4.07463 22.8627C4.80349 21.379 6.01645 20.1881 7.5133 19.4867C7.60963 17.7582 8.19344 16.0923 9.19716 14.6819C10.2009 13.2714 11.5818 12.174 13.1833 11.5167ZM17.5416 10.875C19.2721 11.0405 20.9199 11.6946 22.2927 12.7611C23.6655 13.8276 24.7068 15.2625 25.295 16.8983C26.9118 17.2908 28.3744 18.1579 29.4946 19.388C30.6149 20.6182 31.3417 22.1552 31.5816 23.8017C32.3273 23.165 32.8693 22.3232 33.1403 21.3809C33.4113 20.4386 33.3992 19.4374 33.1056 18.5019C32.812 17.5664 32.2498 16.7379 31.489 16.1194C30.7282 15.5009 29.8024 15.1197 28.8266 15.0233C28.4766 14.9895 28.1463 14.8459 27.8829 14.613C27.6194 14.3801 27.4364 14.0699 27.36 13.7267C27.1309 12.708 26.6328 11.7695 25.9176 11.0089C25.2024 10.2482 24.2963 9.69339 23.2937 9.40214C22.2911 9.11089 21.2287 9.0939 20.2173 9.35296C19.2059 9.61201 18.2825 10.1376 17.5433 10.875H17.5416ZM16.6666 14.1667C15.8582 14.1667 15.0585 14.3347 14.3184 14.6601C13.5783 14.9856 12.914 15.4613 12.3675 16.0571C11.821 16.653 11.4044 17.3559 11.144 18.1213C10.8836 18.8867 10.7852 19.6979 10.855 20.5033C10.8884 20.8956 10.7819 21.287 10.5543 21.6082C10.3267 21.9295 9.99277 22.1598 9.61164 22.2583C8.68944 22.503 7.88746 23.0742 7.35485 23.8658C6.82224 24.6574 6.59524 25.6155 6.71606 26.5619C6.83689 27.5083 7.29731 28.3787 8.01172 29.0111C8.72612 29.6435 9.64589 29.9949 10.6 30H23.3333C24.6594 30 25.9312 29.4732 26.8688 28.5355C27.8065 27.5979 28.3333 26.3261 28.3333 25C28.3336 23.7591 27.8724 22.5625 27.0395 21.6427C26.2066 20.723 25.0614 20.1458 23.8266 20.0233C23.4766 19.9895 23.1463 19.8459 22.8829 19.613C22.6194 19.3801 22.4364 19.0699 22.36 18.7267C22.0705 17.4327 21.3489 16.2759 20.314 15.447C19.279 14.6181 17.9926 14.1665 16.6666 14.1667Z" fill="white"/>
</svg>
